<?xml version="1.0" encoding="UTF-8" standalone="no"?>
<!-- Created with Inkscape (http://www.inkscape.org/) -->

<svg
   xmlns:dc="http://purl.org/dc/elements/1.1/"
   xmlns:cc="http://creativecommons.org/ns#"
   xmlns:rdf="http://www.w3.org/1999/02/22-rdf-syntax-ns#"
   xmlns:svg="http://www.w3.org/2000/svg"
   xmlns="http://www.w3.org/2000/svg"
   xmlns:sodipodi="http://sodipodi.sourceforge.net/DTD/sodipodi-0.dtd"
   xmlns:inkscape="http://www.inkscape.org/namespaces/inkscape"
   width="950"
   height="1200"
   id="svg2"
   version="1.1"
   inkscape:version="0.48.4 r9939"
   sodipodi:docname="Lviv COA.svg">
  <title
     id="title4539">Lviv COA modern</title>
  <defs
     id="defs4">
    <symbol
       id="_ArchTick">
      <path
         id="path3004"
         d="m -14774.609,4420.274 0.07,-0.07"
         style="fill:none;stroke:#000000"
         inkscape:connector-curvature="0" />
    </symbol>
    <symbol
       id="*Paper_Space" />
    <symbol
       id="*MODEL_SPACE" />
    <pattern
       id="Hatch"
       x="0"
       y="0"
       patternUnits="userSpaceOnUse"
       width="8"
       height="8">
      <path
         id="path2995"
         d="M8 4 l-4,4"
         stroke-width="0.25"
         stroke="#000000"
         linecap="square" />
      <path
         id="path2997"
         d="M6 2 l-4,4"
         stroke-width="0.25"
         stroke="#000000"
         linecap="square" />
      <path
         id="path2999"
         d="M4 0 l-4,4"
         stroke-width="0.25"
         stroke="#000000"
         linecap="square" />
    </pattern>
    <marker
       orient="auto"
       id="DistanceX"
       style="overflow:visible"
       refX="0"
       refY="0">
      <path
         id="path2992"
         d="M 3,-3 -3,3 M 0,-5 0,5"
         style="stroke:#000000;stroke-width:0.5"
         inkscape:connector-curvature="0" />
    </marker>
    <symbol
       id="_ArchTick-9">
      <path
         id="path3230"
         d="m -14774.609,4420.274 0.07,-0.07"
         style="fill:none;stroke:#000000"
         inkscape:connector-curvature="0" />
    </symbol>
    <symbol
       id="*Paper_Space-0" />
    <symbol
       id="*MODEL_SPACE-4" />
    <pattern
       id="Hatch-7"
       x="0"
       y="0"
       patternUnits="userSpaceOnUse"
       width="8"
       height="8">
      <path
         id="path3221"
         d="M8 4 l-4,4"
         stroke-width="0.25"
         stroke="#000000"
         linecap="square" />
      <path
         id="path3223"
         d="M6 2 l-4,4"
         stroke-width="0.25"
         stroke="#000000"
         linecap="square" />
      <path
         id="path3225"
         d="M4 0 l-4,4"
         stroke-width="0.25"
         stroke="#000000"
         linecap="square" />
    </pattern>
    <marker
       orient="auto"
       id="DistanceX-1"
       style="overflow:visible"
       refX="0"
       refY="0">
      <path
         id="path3218"
         d="M 3,-3 -3,3 M 0,-5 0,5"
         style="stroke:#000000;stroke-width:0.5"
         inkscape:connector-curvature="0" />
    </marker>
  </defs>
  <sodipodi:namedview
     id="base"
     pagecolor="#ffffff"
     bordercolor="#666666"
     borderopacity="1.0"
     inkscape:pageopacity="0.0"
     inkscape:pageshadow="2"
     inkscape:zoom="0.64833333"
     inkscape:cx="475"
     inkscape:cy="600"
     inkscape:document-units="px"
     inkscape:current-layer="layer2"
     showgrid="false"
     objecttolerance="10000"
     inkscape:window-width="1568"
     inkscape:window-height="993"
     inkscape:window-x="0"
     inkscape:window-y="0"
     inkscape:window-maximized="0" />
  <metadata
     id="metadata7">
    <rdf:RDF>
      <cc:Work
         rdf:about="">
        <dc:format>image/svg+xml</dc:format>
        <dc:type
           rdf:resource="http://purl.org/dc/dcmitype/StillImage" />
        <dc:title>Lviv COA modern</dc:title>
        <dc:date>2013-02-21</dc:date>
        <dc:creator>
          <cc:Agent>
            <dc:title>Blackfish</dc:title>
          </cc:Agent>
        </dc:creator>
        <dc:coverage></dc:coverage>
        <dc:subject>
          <rdf:Bag>
            <rdf:li>Lviv COA modern</rdf:li>
          </rdf:Bag>
        </dc:subject>
        <cc:license
           rdf:resource="http://creativecommons.org/licenses/publicdomain/" />
      </cc:Work>
      <cc:License
         rdf:about="http://creativecommons.org/licenses/publicdomain/">
        <cc:permits
           rdf:resource="http://creativecommons.org/ns#Reproduction" />
        <cc:permits
           rdf:resource="http://creativecommons.org/ns#Distribution" />
        <cc:permits
           rdf:resource="http://creativecommons.org/ns#DerivativeWorks" />
      </cc:License>
    </rdf:RDF>
  </metadata>
  <g
     inkscape:groupmode="layer"
     id="layer2"
     inkscape:label="blue background"
     style="display:inline">
    <path
       id="path3354"
       d="m 25.718913,26.824 0,698.06094 a 449.39546,449.39546 0 0 0 898.790917,0 l 0,-698.06094 -898.790917,0 z"
       style="fill:#0182cc;fill-opacity:1;stroke:#000000;stroke-opacity:1;stroke-width:5;stroke-miterlimit:4;stroke-dasharray:none"
       inkscape:connector-curvature="0" />
  </g>
  <g
     inkscape:groupmode="layer"
     id="layer3"
     inkscape:label="brown castel"
     style="display:inline">
    <path
       id="path3328"
       d="m 794.8402,384.86095 12.5848,430.75438 14.99973,0 0,75.75784 -103.15742,0 0,-75.75784 7.549,0 A 365.25238,365.25238 0 0 0 475.11437,464.68071 365.25238,365.25238 0 0 0 223.41243,815.61533 l 7.54901,0 0,75.75784 -103.15742,0 0,-75.75784 14.99972,0 12.58479,-430.75438 -14.95173,0 -7.17684,-27.19932 24.22181,0 0,-103.06467 -20.19902,0 0,-75.75687 41.64099,0 0,36.53098 26.96179,0 0,-36.53098 41.64098,0 0,36.53098 26.96179,0 0,-36.53098 41.641,0 0,75.75687 -20.19903,0 0,103.06467 28.50154,0 0,-48.7967 41.64099,0 0,48.7967 34.36746,0 0,-163.43878 -18.35894,0 0,-75.75685 44.18907,0 0,36.53098 28.02349,0 0,-36.53098 41.64099,0 0,36.53098 28.02348,0 0,-36.53098 44.18906,0 0,75.75685 -18.35892,0 0,163.43878 34.36745,0 0,-48.7967 41.641,0 0,48.7967 28.50154,0 0,-103.06467 -20.19903,0 0,-75.75687 41.64098,0 0,36.53098 26.96179,0 0,-36.53098 41.641,0 0,36.53098 26.96179,0 0,-36.53098 41.64099,0 0,75.75687 -20.19904,0 0,103.06467 24.22183,0 -7.17684,27.19932 -14.95175,0 14.95175,0 -14.95175,0 z"
       style="fill:#000000;fill-opacity:1;stroke:none"
       inkscape:connector-curvature="0" />
  </g>
  <g
     inkscape:groupmode="layer"
     id="layer4"
     inkscape:label="yellow castel"
     style="display:inline">
    <g
       transform="translate(0,147.63777)"
       id="g4295">
      <path
         inkscape:connector-curvature="0"
         style="fill:#ffdd00;fill-opacity:1;stroke:none"
         d="m 331.65135,211.02382 27.20191,0 0,-41.57716 -27.20191,0 0,41.57716 z"
         id="path3234" />
      <path
         inkscape:connector-curvature="0"
         style="fill:#ffdd00;fill-opacity:1;stroke:none"
         d="m 223.09626,211.02382 0,-24.94198 -8.68855,0 0,-22.98059 -49.7064,0 0,47.92257 58.39495,0 z"
         id="path3236" />
      <path
         inkscape:connector-curvature="0"
         style="fill:#ffdd00;fill-opacity:1;stroke:none"
         d="m 288.71073,155.88171 0,-47.92256 -124.00942,0 0,47.92256 49.7064,0 0,-30.20013 24.59662,0 0,30.20013 49.7064,0 z"
         id="path3238" />
      <path
         inkscape:connector-curvature="0"
         style="fill:#ffdd00;fill-opacity:1;stroke:none"
         d="m 288.71073,163.10125 -49.7064,0 0,22.98059 -8.68853,0 0,24.94198 58.39493,0 0,-47.92257 z"
         id="path3240" />
      <path
         inkscape:connector-curvature="0"
         style="fill:#ffdd00;fill-opacity:1;stroke:none"
         d="m 135.02356,737.51581 88.71834,0 0,-61.31875 -88.71834,0 0,61.31875 z"
         id="path3242" />
      <path
         inkscape:connector-curvature="0"
         style="fill:#ffdd00;fill-opacity:1;stroke:none"
         d="m 618.5774,211.02382 -27.20192,0 0,-41.57716 27.20192,0 0,41.57716 z"
         id="path3244" />
      <path
         inkscape:connector-curvature="0"
         style="fill:#ffdd00;fill-opacity:1;stroke:none"
         d="m 727.13249,211.02382 0,-24.94198 8.68855,0 0,-22.98059 49.70638,0 0,47.92257 -58.39493,0 z"
         id="path3246" />
      <path
         inkscape:connector-curvature="0"
         style="fill:#ffdd00;fill-opacity:1;stroke:none"
         d="m 661.51802,155.88171 0,-47.92256 124.0094,0 0,47.92256 -49.70638,0 0,-30.20013 -24.59663,0 0,30.20013 -49.70639,0 z"
         id="path3248" />
      <path
         inkscape:connector-curvature="0"
         style="fill:#ffdd00;fill-opacity:1;stroke:none"
         d="m 661.51802,163.10125 49.70639,0 0,22.98059 8.68854,0 0,24.94198 -58.39493,0 0,-47.92257 z"
         id="path3250" />
      <path
         inkscape:connector-curvature="0"
         style="fill:#ffdd00;fill-opacity:1;stroke:none"
         d="m 815.20518,737.51581 -88.71834,0 0,-61.31875 88.71834,0 0,61.31875 z"
         id="path3252" />
      <path
         inkscape:connector-curvature="0"
         style="fill:#ffdd00;fill-opacity:1;stroke:none"
         d="m 204.69635,238.22314 96.40206,0 0,40.70433 -96.40206,0 0,-40.70433 z"
         id="path3254" />
      <path
         inkscape:connector-curvature="0"
         style="fill:#ffdd00;fill-opacity:1;stroke:none"
         d="m 256.55116,286.14701 104.31722,0 0,48.07297 -104.31722,0 0,-48.07297 z"
         id="path3256" />
      <path
         inkscape:connector-curvature="0"
         style="fill:#ffdd00;fill-opacity:1;stroke:none"
         d="m 308.31795,238.22314 101.29403,0 0,40.70433 -101.29403,0 0,-40.70433 z"
         id="path3258" />
      <path
         inkscape:connector-curvature="0"
         style="fill:#ffdd00;fill-opacity:1;stroke:none"
         d="m 204.69635,341.43952 96.40206,0 0,47.1012 -96.40206,0 0,-47.1012 z"
         id="path3260" />
      <path
         inkscape:connector-curvature="0"
         style="fill:#ffdd00;fill-opacity:1;stroke:none"
         d="m 641.91079,238.22314 -101.29404,0 0,40.70433 101.29404,0 0,-40.70433 z"
         id="path3262" />
      <path
         inkscape:connector-curvature="0"
         style="fill:#ffdd00;fill-opacity:1;stroke:none"
         d="m 416.83152,278.92747 116.5657,0 0,-40.70433 -116.5657,0 0,40.70433 z"
         id="path3264" />
      <path
         inkscape:connector-curvature="0"
         style="fill:#ffdd00;fill-opacity:1;stroke:none"
         d="m 162.61115,238.22314 34.86566,0 0,40.70433 -36.05486,0 1.1892,-40.70433 z"
         id="path3266" />
      <path
         inkscape:connector-curvature="0"
         style="fill:#ffdd00;fill-opacity:1;stroke:none"
         d="m 161.21103,286.14701 88.12059,0 0,48.07297 -89.52508,0 1.40449,-48.07297 z"
         id="path3268" />
      <path
         inkscape:connector-curvature="0"
         style="fill:#ffdd00;fill-opacity:1;stroke:none"
         d="m 159.59562,341.43952 37.88119,0 0,47.1012 -39.25729,0 1.3761,-47.1012 z"
         id="path3270" />
      <path
         inkscape:connector-curvature="0"
         style="fill:#ffdd00;fill-opacity:1;stroke:none"
         d="m 158.0086,395.76026 91.32302,0 0,49.87628 -92.78019,0 1.45717,-49.87628 z"
         id="path3272" />
      <path
         inkscape:connector-curvature="0"
         style="fill:#ffdd00;fill-opacity:1;stroke:none"
         d="m 156.3405,452.85608 41.13631,0 0,47.10613 -42.51255,0 1.37624,-47.10613 z"
         id="path3274" />
      <path
         inkscape:connector-curvature="0"
         style="fill:#ffdd00;fill-opacity:1;stroke:none"
         d="m 154.75335,507.18174 76.04231,0 a 391.18671,391.18671 0 0 0 -18.09291,49.88121 l -59.40672,0 1.45732,-49.88121 z"
         id="path3276" />
      <path
         inkscape:connector-curvature="0"
         style="fill:#ffdd00;fill-opacity:1;stroke:none"
         d="m 153.0851,564.28248 44.39171,0 0,45.98922 -45.73531,0 1.3436,-45.98922 z"
         id="path3278" />
      <path
         inkscape:connector-curvature="0"
         style="fill:#ffdd00;fill-opacity:1;stroke:none"
         d="m 151.53057,617.49123 48.84854,0 a 391.18671,391.18671 0 0 0 -2.9023,51.48629 l -47.45045,0 1.50421,-51.48629 z"
         id="path3280" />
      <path
         inkscape:connector-curvature="0"
         style="fill:#ffdd00;fill-opacity:1;stroke:none"
         d="m 204.69635,452.85608 55.41297,0 a 391.18671,391.18671 0 0 0 -26.0378,47.10613 l -29.37517,0 0,-47.10613 z"
         id="path3282" />
      <path
         inkscape:connector-curvature="0"
         style="fill:#ffdd00;fill-opacity:1;stroke:none"
         d="m 256.55116,395.76026 44.54725,0 0,4.21849 a 391.18671,391.18671 0 0 0 -36.20868,45.65779 l -8.33857,0 0,-49.87628 z"
         id="path3284" />
      <path
         inkscape:connector-curvature="0"
         style="fill:#ffdd00;fill-opacity:1;stroke:none"
         d="m 308.31795,341.43952 60.77247,0 a 391.18671,391.18671 0 0 0 -57.00453,47.1012 l -3.76794,0 0,-47.1012 z"
         id="path3286" />
      <path
         inkscape:connector-curvature="0"
         style="fill:#ffdd00;fill-opacity:1;stroke:none"
         d="m 204.69635,564.28248 6.00436,0 -6.00436,26.01885 0,-26.01885 z"
         id="path3288" />
      <path
         inkscape:connector-curvature="0"
         style="fill:#ffdd00;fill-opacity:1;stroke:none"
         d="m 745.53239,238.22314 -96.40206,0 0,40.70433 96.40206,0 0,-40.70433 z"
         id="path3290" />
      <path
         inkscape:connector-curvature="0"
         style="fill:#ffdd00;fill-opacity:1;stroke:none"
         d="m 693.67758,286.14701 -104.31722,0 0,48.07297 104.31722,0 0,-48.07297 z"
         id="path3292" />
      <path
         inkscape:connector-curvature="0"
         style="fill:#ffdd00;fill-opacity:1;stroke:none"
         d="m 745.53239,341.43952 -96.40206,0 0,47.1012 96.40206,0 0,-47.1012 z"
         id="path3294" />
      <path
         inkscape:connector-curvature="0"
         style="fill:#ffdd00;fill-opacity:1;stroke:none"
         d="m 787.6176,238.22314 -34.86567,0 0,40.70433 36.05487,0 -1.1892,-40.70433 z"
         id="path3296" />
      <path
         inkscape:connector-curvature="0"
         style="fill:#ffdd00;fill-opacity:1;stroke:none"
         d="m 789.01772,286.14701 -88.12059,0 0,48.07297 89.52508,0 -1.40449,-48.07297 z"
         id="path3298" />
      <path
         inkscape:connector-curvature="0"
         style="fill:#ffdd00;fill-opacity:1;stroke:none"
         d="m 790.63313,341.43952 -37.8812,0 0,47.1012 39.2573,0 -1.3761,-47.1012 z"
         id="path3300" />
      <path
         inkscape:connector-curvature="0"
         style="fill:#ffdd00;fill-opacity:1;stroke:none"
         d="m 792.22015,395.76026 -91.32302,0 0,49.87628 92.78019,0 -1.45717,-49.87628 z"
         id="path3302" />
      <path
         inkscape:connector-curvature="0"
         style="fill:#ffdd00;fill-opacity:1;stroke:none"
         d="m 793.88824,452.85608 -41.13631,0 0,47.10613 42.51255,0 -1.37624,-47.10613 z"
         id="path3304" />
      <path
         inkscape:connector-curvature="0"
         style="fill:#ffdd00;fill-opacity:1;stroke:none"
         d="m 795.4754,507.18174 -76.04232,0 a 391.18671,391.18671 0 0 1 18.0929,49.88121 l 59.40674,0 -1.45732,-49.88121 z"
         id="path3306" />
      <path
         inkscape:connector-curvature="0"
         style="fill:#ffdd00;fill-opacity:1;stroke:none"
         d="m 797.14364,564.28248 -44.39171,0 0,45.98922 45.73532,0 -1.34361,-45.98922 z"
         id="path3308" />
      <path
         inkscape:connector-curvature="0"
         style="fill:#ffdd00;fill-opacity:1;stroke:none"
         d="m 745.53239,452.85608 -55.41298,0 a 391.18671,391.18671 0 0 1 26.03781,47.10613 l 29.37517,0 0,-47.10613 z"
         id="path3310" />
      <path
         inkscape:connector-curvature="0"
         style="fill:#ffdd00;fill-opacity:1;stroke:none"
         d="m 693.67758,395.76026 -44.54725,0 0,4.21849 a 391.18671,391.18671 0 0 1 36.20868,45.65779 l 8.33857,0 0,-49.87628 z"
         id="path3312" />
      <path
         inkscape:connector-curvature="0"
         style="fill:#ffdd00;fill-opacity:1;stroke:none"
         d="m 641.91079,341.43952 -60.77247,0 a 391.18671,391.18671 0 0 1 57.00453,47.1012 l 3.76794,0 0,-47.1012 z"
         id="path3314" />
      <path
         inkscape:connector-curvature="0"
         style="fill:#ffdd00;fill-opacity:1;stroke:none"
         d="m 745.53239,564.28248 -6.00436,0 6.00436,26.01885 0,-26.01885 z"
         id="path3316" />
      <path
         inkscape:connector-curvature="0"
         style="fill:#ffdd00;fill-opacity:1;stroke:none"
         d="m 798.69817,617.49123 -48.84853,0 a 391.18671,391.18671 0 0 1 2.90229,51.48629 l 47.45045,0 -1.50421,-51.48629 z"
         id="path3318" />
      <path
         inkscape:connector-curvature="0"
         style="fill:#ffdd00;fill-opacity:1;stroke:none"
         d="m 475.11437,290.85306 a 391.18671,391.18671 0 0 1 94.98137,43.36692 l 12.04508,0 0,-48.07297 -107.02645,0 -107.02645,0 0,48.07297 12.04508,0 a 391.18671,391.18671 0 0 1 94.98137,-43.36692 l 0,0 z"
         id="path3326" />
      <path
         inkscape:connector-curvature="0"
         style="fill:#ffdd00;fill-opacity:1;stroke:none"
         d="M 475.11437,310.45497 A 372.47192,372.47192 0 0 0 216.19252,668.97752 l -11.49582,0 A 383.96717,383.96717 0 0 1 475.11437,298.40384 383.96717,383.96717 0 0 1 745.53205,668.97752 l -11.49583,0 A 372.47192,372.47192 0 0 0 475.11437,310.45497 l 0,0 z"
         id="path3330" />
      <path
         inkscape:connector-curvature="0"
         style="fill:#ffdd00;fill-opacity:1;stroke:none"
         d="m 805.72646,39.421821 -27.20191,0 0,36.530977 -41.40087,0 0,-36.530977 -27.20192,0 0,36.530977 -41.40087,0 0,-36.530977 -27.20191,0 0,61.317779 164.40748,0 0,-61.317779 z"
         id="path3332" />
      <path
         inkscape:connector-curvature="0"
         style="fill:#ffdd00;fill-opacity:1;stroke:none"
         d="m 804.24224,230.95826 3.34299,-12.66956 -664.94172,0 3.343,12.66956 658.25573,0 z"
         id="path3334" />
      <path
         inkscape:connector-curvature="0"
         style="fill:#ffdd00;fill-opacity:1;stroke:none"
         d="m 427.98207,154.13771 94.26461,0 0,-53.27633 -34.834,0 0,30.09374 -24.59663,0 0,-30.09374 -34.83398,0 0,53.27633 z"
         id="path3336" />
      <path
         inkscape:connector-curvature="0"
         style="fill:#ffdd00;fill-opacity:1;stroke:none"
         d="m 529.46622,100.86138 13.10273,0 0,53.27633 -13.10273,0 0,-53.27633 z"
         id="path3338" />
      <path
         inkscape:connector-curvature="0"
         style="fill:#ffdd00;fill-opacity:1;stroke:none"
         d="m 487.41268,93.641844 55.15627,0 0,-46.056803 -63.84481,0 0,22.96982 8.68854,0 0,23.086983 z"
         id="path3340" />
      <path
         inkscape:connector-curvature="0"
         style="fill:#ffdd00;fill-opacity:1;stroke:none"
         d="m 478.72414,211.02382 63.84481,0 0,-49.66657 -63.84481,0 0,49.66657 z"
         id="path3342" />
      <path
         inkscape:connector-curvature="0"
         style="fill:#ffdd00;fill-opacity:1;stroke:none"
         d="m 488.71533,-20.952274 -27.20191,0 0,36.530977 -42.46257,0 0,-36.530977 -29.74999,0 0,61.317778 171.62702,0 0,-61.317778 -29.74999,0 0,36.530977 -42.46256,0 0,-36.530977 z"
         id="path3344" />
      <path
         inkscape:connector-curvature="0"
         style="fill:#ffdd00;fill-opacity:1;stroke:none"
         d="m 420.76253,100.86138 -13.10273,0 0,53.27633 13.10273,0 0,-53.27633 z"
         id="path3346" />
      <path
         inkscape:connector-curvature="0"
         style="fill:#ffdd00;fill-opacity:1;stroke:none"
         d="m 462.81605,93.641844 -55.15625,0 0,-46.056803 63.8448,0 0,22.96982 -8.68855,0 0,23.086983 z"
         id="path3348" />
      <path
         inkscape:connector-curvature="0"
         style="fill:#ffdd00;fill-opacity:1;stroke:none"
         d="m 471.5046,211.02382 -63.8448,0 0,-49.66657 63.8448,0 0,49.66657 z"
         id="path3350" />
      <path
         inkscape:connector-curvature="0"
         style="fill:#ffdd00;fill-opacity:1;stroke:none"
         d="m 144.50228,39.421821 27.20192,0 0,36.530977 41.40087,0 0,-36.530977 27.20191,0 0,36.530977 41.40086,0 0,-36.530977 27.20192,0 0,61.317779 -164.40748,0 0,-61.317779 z"
         id="path3352" />
    </g>
  </g>
  <g
     inkscape:groupmode="layer"
     id="layer6"
     inkscape:label="brown lion"
     style="display:inline;opacity:1">
    <path
       id="path4070"
       d="m 484.96134,543.85577 c -7.62801,-0.17935 -15.43701,3.20681 -22.174,6.78892 -0.88477,-2.1015 -3.12672,-3.55292 -5.40626,-3.49999 -14.42973,-1.2038 -29.56815,-2.09461 -39.99999,8.74999 -13.12556,-1.21123 -26.66412,2.86637 -36.93751,11.125 -4.05527,3.46297 -4.02462,9.46602 -0.43749,12.68751 -1.20068,9.51564 3.87552,18.38639 11.9375,21.93749 -0.0243,1.71826 -0.19171,3.43446 -0.50001,5.12501 -8.7294,4.00674 -9.92237,14.81922 -3.24999,20.21874 -0.24492,1.60546 1.01517,3.28559 2.625,3.50001 4.39162,-0.22503 8.7905,-0.30843 13.1875,-0.25 1.80751,1.85833 1.57614,4.7192 -0.50001,5.96875 -8.91048,4.33451 -18.64927,6.95855 -28.53124,7.68749 0.94281,4.0502 3.68635,7.64599 7.34375,9.62501 -13.13985,8.89384 -26.9157,16.84787 -41.18751,23.78125 3.81062,4.35224 8.02164,8.35375 12.5625,11.9375 -13.05476,14.68202 -12.70701,37.92994 -31.43749,44.25 3.39638,3.51015 6.88767,6.92848 10.46874,10.24999 -14.53981,7.32749 -30.75132,11.31304 -47.03124,11.56251 -6.18944,-0.0482 -10.58271,-5.48988 -9.65626,-11 0.57686,-9.05169 -6.01877,-16.56057 -14.24999,-17.28126 -4.02253,-3.78384 -10.41211,-4.79476 -15.40625,-2.4375 0.8797,2.60106 2.21906,5.04594 3.9375,7.18751 -0.66081,2.11678 -0.95811,4.34653 -0.875,6.5625 0.0856,2.22967 -2.09367,4.26679 -4.3125,4.03124 -2.57644,-0.266 -5.25139,0.64911 -7.12501,2.43751 -4.16647,0.47047 -8.09217,2.77696 -10.53125,6.1875 2.55588,3.00074 6.09579,5.14916 9.9375,6.03125 -0.76043,3.30722 1.21066,7.02411 4.37501,8.25 1.77159,2.25034 1.18854,5.96343 -1.1875,7.56249 -1.59967,0.55435 -2.91673,1.86933 -3.47361,3.46811 -0.55689,1.5988 -0.34176,3.44745 0.56735,4.87565 -2.18756,3.10793 -3.4907,6.83123 -3.71874,10.625 4.65685,1.74836 10.25013,0.68238 13.93749,-2.65626 4.13114,1.92776 9.33861,1.28316 12.87501,-1.59374 0.89255,-0.43673 2.06433,-0.20191 2.71966,0.54504 0.65534,0.74694 0.73573,1.9393 0.18658,2.76745 -1.54714,1.41203 -2.43693,3.51668 -2.37188,5.6103 0.065,2.0936 1.0838,4.13896 2.71563,5.4522 0.075,3.96843 1.90438,7.87207 4.90625,10.46876 2.47089,-2.15969 4.51168,-4.80951 5.96875,-7.75 0.96432,0.57457 7.13572,1.26127 9.76384,-6.13257 2.57082,6.46365 12.50395,14.59578 26.92367,18.50759 -0.88127,-2.03309 -4.83331,-8.1543 -4.34027,-13.37956 2.3089,3.63319 11.74228,9.58611 17.02777,9.66081 -1.26375,-6.69866 -4.88356,-11.15977 -3.84228,-18.85217 6.10805,6.05479 19.71172,8.34562 27.06103,6.66483 -3.44887,4.39688 -5.02962,10.2122 -4.28126,15.74999 2.94453,-3.50269 6.53264,-6.4626 10.53125,-8.68749 0.93379,-0.76279 2.40338,-0.77028 3.3449,-0.0171 0.94153,0.75322 1.25681,2.18862 0.7176,3.26707 -7.97552,9.40065 -15.16497,19.468 -21.46874,30.0625 -6.25957,7.19379 -16.8646,10.26568 -26,7.53125 -6.00986,-2.63722 -13.69556,-0.6853 -17.71875,4.5 -8.1903,2.55009 -14.75911,9.73861 -16.5625,18.12501 3.90158,-0.31118 7.84528,-0.0897 11.68749,0.65625 3.85179,0.73842 6.79863,4.69149 6.40626,8.59375 -6.79511,7.14864 -5.4829,18.19959 1.8125,23.31249 1.03634,-3.40911 3.70652,-6.28101 7.03125,-7.5625 3.48803,1.04779 7.61215,-0.91404 8.99999,-4.28124 4.66481,-1.11844 9.92813,1.0132 12.50001,5.06249 1.60619,4.99073 5.03849,9.37142 9.5,12.125 2.09752,-3.42265 5.15152,-8.31597 4.3125,-12.125 3.28603,-1.80799 5.75495,-6.62159 5.65868,-9.68831 6.49779,5.62746 6.33861,9.33437 9.46631,13.03206 3.83262,-1.51516 8.27859,-8.75601 8.33792,-12.87683 4.82943,-5.74994 6.75939,-13.98532 1.94333,-20.99817 7.90807,-0.69587 15.41433,-5.07943 19.90626,-11.62499 11.79674,2.16367 24.37287,-0.24913 34.53125,-6.625 -5.55367,0.76053 -11.41036,-2.64232 -13.5,-7.84376 8.98379,2.98949 19.42913,1.11469 26.8125,-4.81249 -2.9929,-1.52596 -5.10672,-4.65392 -5.40626,-8.00001 4.25779,-1.13309 8.94167,-0.57331 12.81251,1.53125 0.20833,-5.3116 -1.2771,-10.67686 -4.1875,-15.125 15.0309,0.49059 30.09343,0.01 45.0625,-1.4375 -1.64391,-3.62716 -5.34375,-6.23443 -9.31251,-6.5625 8.37539,-6.06194 19.47127,-8.20119 29.50001,-5.6875 -5.46741,-3.43756 -11.37436,-6.17518 -17.53126,-8.125 17.20969,-6.723 33.58324,-15.58323 48.62501,-26.3125 7.28617,-5.886 16.80635,-8.93428 26.15625,-8.375 l -18.12501,19.09375 c -7.34315,6.92747 -10.94246,17.6083 -9.28981,27.56724 5.49513,20.07037 18.98922,22.21371 32.13357,32.65151 2.16372,1.73187 2.6447,5.21535 1.03125,7.46875 -2.25887,6.22647 -6.15377,11.85124 -11.1875,16.15626 -2.2097,1.87866 -5.887,1.67436 -7.875,-0.43751 -11.021,-8.01324 -24.76354,-5.88384 -31.71875,4.56251 -5.4667,1.53775 -9.91846,6.23891 -11.15625,11.78124 3.33248,1.65286 7.14974,2.3129 10.84374,1.875 2.83041,2.90388 6.25495,5.22615 10.00001,6.78125 -0.55811,1.77635 -0.84371,3.63804 -0.84375,5.5 -2.56445,6.01818 -2.32942,13.16337 0.62499,19 3.57181,-1.10892 6.85288,-3.14058 9.4375,-5.84375 4.07625,-0.8152 7.84533,-3.08789 10.46875,-6.31249 1.1033,1.65873 2.59092,3.06011 4.31251,4.0625 0.33142,6.63386 3.74561,13.05019 9.06249,17.03125 4.57086,-3.04727 7.85941,-7.95708 8.93751,-13.34376 3.25008,-3.19461 5.82278,-7.0751 7.5,-11.3125 5.02756,2.81625 7.93494,8.98621 6.90624,14.65625 12.94687,-6.60285 9.68593,-14.0268 13.625,-24.3125 1.81149,-2.96157 0.97752,-7.24653 -1.81249,-9.3125 -1.48765,-4.13279 2.51105,-7.62689 5.99999,-5.96875 4.40636,2.19086 8.54148,4.92657 12.28125,8.125 2.42722,-6.01685 1.66467,-13.2186 -1.96875,-18.59375 1.68614,-0.71889 3.74205,-0.48686 5.22553,0.58976 1.4835,1.07663 2.34146,2.95931 2.18072,4.78524 3.2268,-5.50469 2.47169,-13.05578 -1.78125,-17.8125 -0.97999,-1.08594 -0.7435,-3.02514 0.46875,-3.84374 4.73581,-4.0066 4.41974,-11.06105 0,-14.46876 -11.8059,4.34937 -13.99777,-17.47375 -10.2448,-19.94274 8.71021,13.28229 25.99206,27.3584 41.83855,28.44275 11.43721,1.92846 21.60012,10.1743 25.84376,20.96875 1.91815,6.14246 -3.49599,11.53341 -9.00001,10.34374 -11.75802,-3.1729 -23.21178,2.33074 -27.43749,12.75 -4.88787,3.06577 -6.11354,9.35967 -3.15625,13.68751 1.9797,-1.5526 4.67246,-2.15492 7.12499,-1.59376 3.5309,2.01439 8.12535,2.01439 11.65625,0 -0.91313,4.46613 0.73237,9.3655 4.15626,12.375 -2.10603,3.57206 -2.21626,8.23873 -0.28126,11.90625 4.04792,-1.9092 7.6702,-4.71458 10.53126,-8.15625 5.04315,-2.01273 9.5552,-5.33969 12.96875,-9.56249 -0.29235,4.87655 3.70672,9.61996 8.5625,10.15625 1.20087,3.16967 5.1687,4.96781 8.34375,3.78124 -0.78928,-2.16031 -1.12157,-4.48636 -0.96875,-6.78124 2.92356,-1.86605 6.27511,-12.57943 4.62716,-15.63125 4.69157,1.38356 4.9377,4.74266 8.7473,8.28884 4.0699,-2.00563 5.72152,-10.25341 3.50917,-13.36436 5.01073,-15.17984 5.5732,-21.74087 -3.09241,-38.11772 7.41718,-0.13816 14.05338,-6.96 15.49003,-14.23802 -4.81633,0.19538 -9.67748,-0.83544 -14.00001,-2.96874 4.56038,-2.87117 7.28893,-8.41628 6.78126,-13.78126 -2.98057,1.25653 -9.40538,1.32533 -10.61436,-0.69085 0.1116,-3.08537 1.48283,-7.54252 -0.13112,-10.9089 -14.44493,2.81997 -23.51428,-0.90119 -29.51304,-8.38498 -3.53509,-4.55507 -5.15583,-10.54943 -4.39774,-16.26527 7.93898,2.33548 16.93978,0.71199 23.56251,-4.24999 -8.66375,0.58153 -11.81402,-8.60856 -18.875,-10.84376 2.5467,-3.48232 6.53989,-5.87131 10.8125,-6.46875 -2.95171,-3.12036 -6.92564,-5.2576 -11.15625,-6 0.13364,-1.95381 1.40648,-3.78808 3.18997,-4.59702 1.78349,-0.80894 4.00202,-0.55825 5.56002,0.62827 0.46292,-2.55509 -1.0836,-5.33055 -3.49999,-6.28125 -5.00877,-2.49203 -6.91398,-8.37347 -4.65625,-12.9375 35.12755,-2.76924 43.08149,-32.33949 24.3125,-53.96874 -15.5241,-13.24919 -33.91244,-23.12501 -53.53125,-28.75001 -1.41547,-5.1489 -5.73359,-9.39278 -10.90626,-10.71875 -13.66052,-5.95204 -10.3479,-18.80748 -1.15624,-23.40625 -2.87259,-1.1161 -6.16644,-1.10472 -9.03125,0.0312 -2.38847,-8.80204 -9.24103,-16.33733 -14.89985,-20.92723 8.15722,4.55153 19.05684,-7.81664 23.08735,-7.13527 -12.02389,-9.06104 -25.62442,-7.05855 -35.9375,-18.53125 -7.6829,-7.5907 -19.31012,-6.05873 -26.9375,-4.34375 -6.35225,-3.73739 -13.92345,-5.36297 -21.25001,-4.5625 -25.31551,4.08332 -29.69324,31.59075 -17.68749,47.90625 14.88133,19.33748 36.81108,33.12544 60.6875,38.15625 -6.66159,3.34383 -11.4538,10.1621 -12.34376,17.5625 7.77628,-3.38216 16.56392,-4.39655 24.90625,-2.875 1.18506,11.76151 10.56981,20.49848 21.375,20.96875 -3.2704,-3.37543 -4.83357,-8.32744 -4.09374,-12.96875 0.40612,-2.4744 2.90864,-3.80293 4.93749,-2.65623 4.69986,1.77818 10.14133,1.48751 14.625,-0.78125 15.23133,7.30262 37.34351,16.06624 47.54725,27.21497 10.1849,21.27223 -20.07015,22.50308 -37.10442,13.15861 -45.63464,-17.77007 -91.03054,-21.31877 -138.31783,-11.43607 -1.96433,0.18976 -3.99955,-0.64323 -5.26716,-2.15578 -1.2676,-1.51256 -1.73189,-3.66207 -1.20158,-5.56297 4.21859,2.00601 9.03043,2.74375 13.65625,2.09375 -7.56073,-8.91443 -10.78171,-21.34841 -8.50001,-32.81251 6.26678,4.31555 14.87957,4.95996 21.71876,1.62501 -12.17022,-11.68797 -19.18168,-28.56654 -18.875,-45.4375 4.9907,0.32629 9.9532,-3.30174 11.15625,-8.15625 -12.15025,-5.83021 -21.43028,-17.32991 -24.56251,-30.4375 -2.89139,-2.27359 -4.75531,-3.44911 -7.70212,-5.10835 -1.85277,-7.76563 -5.20727,-17.80783 -8.49887,-21.71201 z m 67.5135,30.78893 c 3.05414,-5e-5 6.08819,1.28048 8.21874,3.46874 -1.57617,6.4491 -0.60442,15.00969 -6.53124,18.28125 6.15614,2.39839 13.41225,1.76793 19.0625,-1.65625 3.69847,10.76382 11.9959,19.86086 22.375,24.53125 -2.02386,-3.40911 -4.95413,-15.90223 -4.6811,-20.5287 1.78001,9.85256 27.15689,10.20059 29.1186,16.99747 -6.5941,2.58419 -13.61646,6.35452 -14.5625,13.4375 -23.06531,-5.08626 -50.30515,-20.08295 -60.09717,-33.22674 -9.79204,-13.14378 -2.23764,-21.33054 7.09717,-21.30451 z m -136.09349,26.40917 c 1.90737,8.18057 -10.04426,7.96456 -14.21901,5.77833 0.10652,-2.08852 0.47084,-4.5078 0.34375,-6.29727 4.03569,-2.68121 11.70855,-4.67888 13.87526,0.51894 z"
       style="fill:#000000;fill-opacity:1;stroke:none"
       inkscape:connector-curvature="0"
       sodipodi:nodetypes="ccccccccccccccccccccccccccccccsccccscscccccccccccsccccccccccccccccccccccccccccccccccccccccccccccccccccccsccccccccccccccccccccccccccccccccccsccccccccccccccccccccccccsccccccccccccccccczcccccc" />
  </g>
  <g
     inkscape:groupmode="layer"
     id="layer5"
     inkscape:label="yellow lion"
     style="display:inline">
    <g
       id="g4028"
       transform="matrix(1.2091205,0,0,1.2091205,974.60048,-98.80274)">
      <path
         sodipodi:nodetypes="cccccccccc"
         transform="matrix(0.82704743,0,0,0.82704743,-20.819166,80.887505)"
         inkscape:connector-curvature="0"
         id="path3882"
         d="m -382.05933,571.96291 c 8.992,-10.33341 16.94307,-5.69143 23.29881,-1.75256 9.72318,7.98341 20.10911,13.78922 31.75237,15.46381 -8.48436,3.6998 -17.02148,3.2827 -30.65801,-2.16889 14.1338,11.26195 14.96886,16.66314 20.96735,23.81823 -11.48019,-4.90334 -22.2897,-11.58504 -29.69052,-20.92769 2.93677,6.88778 2.907,13.11632 3.50513,19.4844 -7.41922,-9.69608 -10.21892,-18.7728 -11.7525,-28.35032 -0.92552,11.18359 -6.10816,11.99733 -10.4123,14.84526 3.54123,-7.20459 -0.85978,-15.58366 2.98967,-20.41224 z"
         style="fill:#ffdd00;fill-opacity:1;stroke:none" />
      <path
         sodipodi:nodetypes="ccccccc"
         transform="matrix(0.82704743,0,0,0.82704743,-20.819166,80.887505)"
         inkscape:connector-curvature="0"
         id="path3884"
         d="m -387.90386,570.14691 c 1.15337,-2.33704 1.49194,-2.56756 3.02183,-3.92139 -15.17212,-6.7365 -40.05817,-1.4374 -33.64826,27.62075 9.29674,27.07769 41.20578,37.46362 64.88473,46.95838 1.35154,-1.33378 3.28356,-4.23541 5.7932,-5.18316 -25.21064,-10.21046 -52.43753,-17.10268 -64.00405,-42.92928 -8.49188,-23.4677 15.69399,-26.89968 23.95255,-22.5453 z"
         style="fill:#ffdd00;fill-opacity:1;stroke:none" />
      <path
         sodipodi:nodetypes="ccccc"
         transform="matrix(0.82704743,0,0,0.82704743,-20.819166,80.887505)"
         inkscape:connector-curvature="0"
         id="path3886"
         d="m -338.17961,640.33037 c 0.96222,2.35391 2.56068,4.49573 4.69694,6.45829 -4.65935,1.05878 -6.46865,4.05226 -8.80675,7.04541 -7.27902,0.8979 -8.67076,-2.07063 -15.55862,-1.32102 4.63539,-6.00057 11.68391,-11.69272 19.66843,-12.18268 z"
         style="fill:#ffdd00;fill-opacity:1;stroke:none" />
      <path
         sodipodi:nodetypes="cccc"
         transform="matrix(0.82704743,0,0,0.82704743,-20.819166,80.887505)"
         inkscape:connector-curvature="0"
         id="path3888"
         d="m -330.64771,623.17369 c -1.63917,11.48998 11.10651,16.12991 16.98025,23.17463 -4.63194,-0.66711 -7.11522,-1.01916 -10.9652,-0.44944 -10.31974,-3.33339 -14.83442,-15.87678 -6.01505,-22.72519 z"
         style="fill:#ffdd00;fill-opacity:1;stroke:none" />
      <path
         sodipodi:nodetypes="ccsc"
         transform="matrix(0.82704743,0,0,0.82704743,-20.819166,80.887505)"
         inkscape:connector-curvature="0"
         id="path3890"
         d="m -309.85119,650.45814 c -22.75389,-4.06841 -30.79132,5.01118 -25.28713,17.25834 2.55877,-2.89038 2.18639,-8.58926 7.37643,-8.78845 7.41679,-0.28464 11.63623,0.0527 17.9107,-8.46989 z"
         style="fill:#ffdd00;fill-opacity:1;stroke:none" />
      <path
         sodipodi:nodetypes="ccccccscscccccccccccccc"
         inkscape:connector-curvature="0"
         id="path3892"
         transform="matrix(0.82704743,0,0,0.82704743,-20.819166,80.887505)"
         d="m -385,759.3125 c -6.33455,6.86771 -12.13946,13.0998 -21,23.125 -6.41268,9.64284 -15.31764,20.99434 3.15625,36.78125 9.30846,6.40003 19.63196,12.09802 25.1875,21 -4.61221,9.69334 -10.30059,20.39314 -21.43616,29.43415 -16.86998,-8.88726 -33.01495,-12.28941 -31.22009,3.00335 0.31145,3.49986 2.34621,5.59261 4.49343,4.48986 5.5674,-2.85928 11.20199,-4.19136 14.56907,-0.67736 -3.08249,0.76385 -8.30838,1.59771 -10.81229,4.51048 -2.39588,2.7871 -4.15857,5.03396 1.40604,10.86452 13.37315,12.48509 9.1424,-6.76614 25.3125,-11.28125 -1.55656,6.76002 -12.10377,16.90496 1.125,19.4375 10.92508,2.17348 6.31217,-9.22956 10.40625,-14.125 10.10703,4.99717 11.70526,0.56851 18.25,1.09375 6.04628,-6.39897 0.008,-10.89648 -1.8125,-14.875 -5.66268,-5.38788 -8.60563,8.40337 -16.0625,8.03125 9.25073,-21.2995 21.80687,-34.79731 38.34375,-38.875 2.20403,-2.97634 0.65589,-5.92991 -1.03125,-8.90625 -8.4327,-7.20279 -7.93454,-15.61908 -6.59375,-24.125 C -350.04334,793.66651 -367.1215,765.05357 -385,759.3125 z m 25.5,42.4375 c -3.25131,19.54109 1.42186,26.95764 7.96875,32.78125 C -369.37334,828.5671 -375.43443,818.07269 -359.5,801.75 z"
         style="fill:#ffdd00;fill-opacity:1;stroke:none" />
      <path
         sodipodi:nodetypes="cccc"
         transform="matrix(0.82704743,0,0,0.82704743,-20.819166,80.887505)"
         inkscape:connector-curvature="0"
         id="path3894"
         d="m -529.43799,809.74957 c -3.36578,4.9701 -8.62137,10.53292 -13.28906,14.85207 7.26096,-3.6e-4 16.97143,-1.39553 26.41996,-0.14546 -2.72438,-5.89375 -7.09398,-10.80038 -13.1309,-14.70661 z"
         style="fill:#ffdd00;fill-opacity:1;stroke:none" />
      <path
         sodipodi:nodetypes="cccc"
         transform="matrix(0.82704743,0,0,0.82704743,-20.819166,80.887505)"
         inkscape:connector-curvature="0"
         id="path3896"
         d="m -547.87797,828.38128 c 6.02635,2.69106 14.1609,3.30295 21.40786,5.3837 -8.2196,1.51353 -16.28369,4.53059 -29.39307,0.69905 z"
         style="fill:#ffdd00;fill-opacity:1;stroke:none" />
      <path
         sodipodi:nodetypes="ccccccccccccczcc"
         transform="matrix(0.82704743,0,0,0.82704743,-20.819166,80.887505)"
         inkscape:connector-curvature="0"
         id="path3898"
         d="m -611.61293,749.37531 c -2.86034,9.94018 -2.35091,18.87689 -1.46809,29.38533 -13.92384,2.21088 -27.91735,3.7686 -48.21079,-2.51331 -1.79566,-0.0965 -2.66137,0.26271 -3.37409,1.57591 8.89684,4.30698 17.01128,18.00314 11.68585,25.83577 -3.29581,-3.51546 -3.77182,-9.223 -10.39315,-12.81794 -3.24106,2.71162 -3.79409,5.64896 -12.33208,3.06365 -9.70852,-6.65299 -3.42945,-11.11727 -5.00071,-17.77026 -7.00315,2.54545 -14.0063,12.95884 -21.00945,6.30284 -6.53732,-13.3829 6.5056,-12.94088 11.5552,-17.85803 -6.17468,-1.82938 -16.80359,4.06906 -16.28232,-9.607 3.77302,-13.63796 13.65614,-0.48267 20.48421,0.67799 1.41892,-8.25714 -17.63337,-8.16676 -3.67666,-18.38327 9.35118,-4.275 7.1959,6.83625 10.38227,13.22435 3.18638,6.3881 4.41791,14.16945 14.82907,12.51222 18.60272,-1.61847 37.64675,-6.27857 52.81074,-13.62825 z"
         style="fill:#ffdd00;fill-opacity:1;stroke:none" />
      <path
         sodipodi:nodetypes="cscc"
         transform="matrix(0.82704743,0,0,0.82704743,-20.819166,80.887505)"
         inkscape:connector-curvature="0"
         id="path3902"
         d="m -367.1954,866.84099 c -1.08393,-2.16787 4.25528,-10.72525 8.44699,-10.43452 4.59482,0.31869 12.91892,9.19231 12.91892,9.19231 -7.12197,-0.86734 -14.24394,-1.76711 -21.36591,1.24221 z"
         style="fill:#ffdd00;fill-opacity:1;stroke:none" />
      <path
         sodipodi:nodetypes="cccc"
         transform="matrix(0.82704743,0,0,0.82704743,-20.819166,80.887505)"
         inkscape:connector-curvature="0"
         id="path3904"
         d="m -354.77336,853.17675 c 2.4318,-1.79169 5.64408,-5.53576 8.69543,-6.70791 5.27542,3.34984 4.47392,5.68687 6.21101,8.44699 -4.33466,-2.0681 -9.91026,-1.65556 -14.90644,-1.73908 z"
         style="fill:#ffdd00;fill-opacity:1;stroke:none" />
      <path
         sodipodi:nodetypes="cccc"
         inkscape:connector-curvature="0"
         id="path3906"
         d="m -372.20722,819.5806 c 1.22303,2.41217 3.03639,3.55083 5.45268,5.16749 -2.59963,0.9768 -4.38906,1.99423 -5.99252,4.36566 -0.92646,-3.73462 -0.51277,-5.99643 0.53984,-9.53315 z"
         style="fill:#ffdd00;fill-opacity:1;stroke:none" />
      <path
         style="fill:#ffdd00;fill-opacity:1;stroke:none"
         d="m -351.63563,827.07878 c 1.55892,1.23656 3.9155,2.52345 6.91184,2.55836 -1.67718,2.66795 -1.83751,3.75609 -1.95991,7.0241 -2.2362,-2.46827 -5.88576,-6.10554 -4.95193,-9.58246 z"
         id="path3908"
         inkscape:connector-curvature="0"
         sodipodi:nodetypes="cccc" />
      <path
         sodipodi:nodetypes="cccc"
         transform="matrix(0.82704743,0,0,0.82704743,-20.819166,80.887505)"
         inkscape:connector-curvature="0"
         id="path3910"
         d="m -433.95035,868.93178 c -0.65313,3.49435 -1.29191,3.67785 0.22199,7.1722 -3.91106,-1.81742 -5.19517,-1.88954 -8.86777,-1.32235 3.46346,-5.12599 4.39302,-4.60151 8.64578,-5.84985 z"
         style="fill:#ffdd00;fill-opacity:1;stroke:none" />
      <path
         sodipodi:nodetypes="cccc"
         transform="matrix(0.82704743,0,0,0.82704743,-20.819166,80.887505)"
         inkscape:connector-curvature="0"
         id="path3912"
         d="m -372.96158,892.82859 c 1.53542,-1.8408 8.14588,-2.75572 8.40451,-1.80743 -0.2252,3.46805 -0.97716,6.89221 -4.0667,10.12157 -2.34494,-2.77138 -4.14904,-5.54276 -4.33781,-8.31414 z"
         style="fill:#ffdd00;fill-opacity:1;stroke:none" />
      <path
         sodipodi:nodetypes="cccccccccccccccsccscsccccccccccccccccccccccccccccccccccccccccccccccsscccsccccscccccccccc"
         inkscape:connector-curvature="0"
         id="path3915"
         transform="matrix(0.82704743,0,0,0.82704743,-20.819166,80.887505)"
         d="m -303.30112,652.21754 c -0.16781,1.60608 -0.30347,1.68109 -2.71875,6.15625 18.10085,7.96117 28.28822,12.51448 42.95737,23.28246 24.55303,21.53122 -2.30315,42.50345 -28.98556,31.53172 -22.752,-9.59834 -72.41166,-29.75015 -146.57527,-15.65494 1.46845,3.64147 2.72656,4.35636 5.50674,8.96613 -8.62382,0.37642 -16.04561,-4.26451 -21.26514,-7.71791 -1.99725,4.72038 0.29589,8.31269 1.29639,13.00168 -7.75341,-0.15894 -15.04081,-4.34259 -18.69591,-10.87668 -7.7559,18.60802 -19.99009,32.30708 -37.3125,40.4375 l 0,-11.5625 c -14.56276,10.15036 -20.99566,22.35066 -24.6875,35.21875 -6.41723,-2.60528 -10.40691,-7.30439 -13.65625,-12.625 -0.62211,5.0274 -3.70595,11.67139 1.5625,28.375 -6.35482,1.35278 -14.00702,1.03698 -19.90625,-0.34375 -3.65623,18.08486 -8.67032,26.38738 -23.03125,38.65625 -14.36093,12.26886 -13.46993,26.43891 -36.53125,38.0625 -10.45857,2.03172 -29.53521,-8.30896 -31.375,6.125 -0.81413,4.72411 2.82414,7.99134 6.03574,5.45665 5.19897,-4.10317 13.32249,-4.61607 18.12051,-2.83165 -4.42681,2.54379 -13.5812,1.79164 -16.82328,8.09517 -1.59711,3.10523 -3.31461,5.64232 0.54203,11.52983 17.30112,9.96531 12.23925,-12.87097 27.84375,-17.875 2.4047,8.72201 -13.31967,14.08206 1.0625,22.40625 9.15799,3.06544 9.20449,-9.45743 12.59375,-16.28125 4.9231,2.39733 5.04872,10.62629 11.03125,7.875 7.13613,-1.46319 4.40561,-9.81933 4.21875,-16.8125 9.29135,-3.6937 18.798,-6.38784 26.78125,-15.75 5.87573,0.90581 11.65388,1.97164 18.40625,1.5625 -5.90599,-4.11979 -9.88457,-8.73888 -11.71875,-12.40625 -10.04631,6.48551 -19.72979,14.12495 -29.21875,14.5 30.26901,-20.46033 66.79674,-47.30275 66.15625,-78.28125 2.88567,5.60398 4.28253,11.20852 2.625,16.8125 27.78219,1.01222 48.16135,-14.35599 69.875,-26.78125 -20.84978,20.70985 -44.7582,33.47188 -71.0625,31 -1.30393,3.64794 -3.6114,7.42897 -7,11.53125 14.02825,1.93477 29.42276,2.92168 43.90625,2.125 -2.85611,-3.80179 -4.38867,-7.91464 -3.15625,-12.625 6.12936,0.0609 12.27689,0.74583 18.40625,2.625 0,0 -4.80134,-7.99857 -7.09375,-8.625 5.1323,-2.11122 36.19152,-17.90286 44.90625,-25.125 33.74968,-19.71139 56.60337,-14.6053 67.78125,3.28125 40.15581,78.37654 43.81475,54.05291 81.53125,74.84375 8.49766,14.48868 18.07164,29.48321 -4.3125,29.71875 -24.03396,-0.91889 -23.92532,4.7425 -21.53125,11.03125 10.49917,8.55589 9.13881,-6.71146 22.59375,-3.6875 -4.47152,4.48507 -18.25373,7.55917 -6.65625,17.75 12.29774,10.27618 11.75602,-13.07642 20.84375,-18.78125 0.33373,7.59708 -5.58721,19.67313 7.875,17.84375 6.92236,-1.51445 4.65395,-9.13257 4.71875,-15.21875 2.11706,-4.18742 7.61536,-2.3315 14.56384,-1.6875 3.18122,-20.79973 -4.46237,-23.75205 -5.43884,-36.25 4.34857,1.24384 12.13244,-1.38269 14.21271,-5.87692 -8.18525,-2.41712 -12.87796,-2.46322 -13.85698,-8.71683 4.18046,-0.34166 6.35149,-5.66256 7.25134,-7.984 -2.62169,-0.41098 -5.7397,1.93641 -10.03393,-0.55588 0.52137,-4.36644 0.67786,-6.00589 0.67686,-8.80387 -31.1337,5.47638 -36.54708,-18.16676 -36.78125,-42.5625 1.45443,-0.29681 3.75842,0.25967 8.40625,3.15625 -2.98309,-9.05848 -7.88335,-11.57508 -10.46875,-16.21875 5.72068,-1.97443 8.20296,1.27004 10.78125,1.78125 -3.80267,-9.28243 -9.19388,-11.72548 -13.96875,-15 1.09539,29.2103 -5.98477,67.4174 30.15625,74.125 4.8625,0.2061 8.72352,1.81192 10.40625,9.4375 -2.04717,10.65574 -1.71609,21.38645 0.96875,33.09375 -9.58489,-8.3092 -11.86914,-18.17201 -6.34375,-29.4375 0.20363,-3.63688 -2.49456,-4.73355 -5.25,-5.78125 -32.42332,-10.68559 -31.79569,-24.34781 -34.15625,-39.40625 -2.44065,-15.56938 3.51776,-34.13366 -4.53767,-53.03169 -0.90517,-2.12353 -0.093,-4.10658 -0.11258,-4.54406 7.81183,12.58409 15.47539,15.74498 21.9315,13.51325 -4.77119,-8.22286 -10.32938,-13.28456 -15.65625,-17.96875 63.97435,6.24287 51.87432,-35.50099 35.6875,-47.625 -14.84789,-11.12115 -27.11309,-16.61417 -44.30112,-23.59496 z m -71.73013,80.15746 c 16.86862,-0.39788 32.67723,23.17836 32.95834,48.82814 -24.87652,-44.12023 -20.36156,-34.42871 -34.61459,-48.73439 0.5587,-0.0575 1.10051,-0.0806 1.65625,-0.0937 z m -97.34488,11.59375 c 11.66532,15.49243 0.66266,23.98957 -9.86634,29.6137 5.84843,-9.98209 10.03596,-15.27002 9.86634,-29.6137 z M -458.125,744.5 c 6.29673,4.25251 6.47931,22.02319 -6.43486,23.49623 4.52795,-7.00498 6.76977,-16.49125 6.43486,-23.49623 z m -28.64119,6.63478 c 8.03488,12.9824 -0.44368,23.75181 -11.84375,28.37011 -0.35087,-1.7612 11.10774,-15.94069 11.84375,-28.37011 z"
         style="fill:#ffdd00;fill-opacity:1;stroke:none" />
      <path
         sodipodi:nodetypes="cccc"
         transform="matrix(0.82704743,0,0,0.82704743,-20.819166,80.887505)"
         inkscape:connector-curvature="0"
         id="path3925"
         d="m -651.92278,783.13776 c 5.07768,1.20856 9.69535,1.58193 15.38635,2.18101 -0.996,4.95823 -0.45665,10.25336 0.83484,17.49908 -8.44797,-6.1267 -12.57688,-13.27042 -16.22119,-19.68009 z"
         style="fill:#ffdd00;fill-opacity:1;stroke:none" />
      <path
         sodipodi:nodetypes="cccc"
         transform="matrix(0.82704743,0,0,0.82704743,-20.819166,80.887505)"
         inkscape:connector-curvature="0"
         id="path3927"
         d="m -632.39602,785.19645 c 5.90696,0.087 11.92105,-0.0402 18.23473,-0.76666 -1.85369,2.48916 -4.85318,5.14812 -5.7791,9.45672 -5.30312,-2.05211 -9.45447,-4.336 -12.45563,-8.69006 z"
         style="fill:#ffdd00;fill-opacity:1;stroke:none" />
      <path
         sodipodi:nodetypes="cccc"
         transform="matrix(0.82704743,0,0,0.82704743,-20.819166,80.887505)"
         inkscape:connector-curvature="0"
         id="path3929"
         d="m -604.04724,783.1939 c -3.81831,0.67407 -11.90159,12.51531 -11.07658,13.77035 4.29721,0.68406 7.67724,-0.27345 12.54948,-1.31446 0.68815,-4.00019 0.27085,-8.46444 -1.4729,-12.45589 z"
         style="fill:#ffdd00;fill-opacity:1;stroke:none" />
      <path
         sodipodi:nodetypes="ccc"
         transform="matrix(0.82704743,0,0,0.82704743,-20.819166,80.887505)"
         inkscape:connector-curvature="0"
         id="path3931"
         d="m -516.44187,701.42082 c -5.9318,2.47417 -9.08382,8.58236 -11.38736,14.68479 10.2458,-4.67857 8.95764,-4.35845 11.38736,-14.68479 z"
         style="fill:#ffdd00;fill-opacity:1;stroke:none" />
      <path
         sodipodi:nodetypes="cccc"
         transform="matrix(0.82704743,0,0,0.82704743,-20.819166,80.887505)"
         inkscape:connector-curvature="0"
         id="path3937"
         d="m -312.46461,881.53305 c 1.40176,3.28578 3.92873,5.44636 6.68832,7.37431 l -10.46122,1.54345 c 0.0426,-4.18758 1.44558,-7.01486 3.7729,-8.91776 z"
         style="fill:#ffdd00;fill-opacity:1;stroke:none" />
      <path
         sodipodi:nodetypes="cscc"
         transform="matrix(0.82704743,0,0,0.82704743,-20.819166,80.887505)"
         inkscape:connector-curvature="0"
         id="path3939"
         d="m -294.45759,900.74054 c 2.57243,2.22944 8.62916,3.95627 7.71729,4.28738 -1.88915,0.68598 -8.29476,6.17384 -7.71729,6.17384 -0.38841,-3.61654 -0.93364,-7.28536 0,-10.46122 z"
         style="fill:#ffdd00;fill-opacity:1;stroke:none" />
      <path
         sodipodi:nodetypes="cccc"
         transform="matrix(0.82704743,0,0,0.82704743,-20.819166,80.887505)"
         inkscape:connector-curvature="0"
         id="path3941"
         d="m -265.81786,901.08353 c 2.69302,0.29834 4.95804,-0.25931 7.20281,-0.85748 l -2.05795,8.06028 c -2.73679,-1.9922 -4.68946,-4.29805 -5.14486,-7.2028 z"
         style="fill:#ffdd00;fill-opacity:1;stroke:none" />
      <path
         sodipodi:nodetypes="cccc"
         inkscape:connector-curvature="0"
         id="path3943"
         d="m -228.83898,812.89571 c 0.65897,-1.67273 3.43447,-1.57356 5.86628,-1.76211 0.72378,2.35718 1.31094,4.72991 -0.96127,7.42849 -1.50342,-2.08687 -3.10636,-4.02394 -4.90501,-5.66638 z"
         style="fill:#ffdd00;fill-opacity:1;stroke:none" />
      <path
         sodipodi:nodetypes="cccc"
         inkscape:connector-curvature="0"
         id="path3945"
         d="m -566.45608,792.98038 c -0.55507,2.70653 0.12883,3.86872 0.70752,6.19733 -2.55303,-0.58328 -3.78613,-0.0629 -6.33916,0.0934 1.68055,-3.40143 2.06614,-5.15129 5.63164,-6.29078 z"
         style="fill:#ffdd00;fill-opacity:1;stroke:none" />
      <path
         sodipodi:nodetypes="cccc"
         transform="matrix(0.82704743,0,0,0.82704743,-20.819166,80.887505)"
         inkscape:connector-curvature="0"
         id="path3947"
         d="m -652.82848,886.44591 c 1.4863,2.85826 3.20258,3.2066 6.06084,4.69289 -2.43935,1.02989 -4.9947,2.75079 -7.88878,5.14486 -0.47395,-3.82209 -0.42086,-7.83082 1.82794,-9.83775 z"
         style="fill:#ffdd00;fill-opacity:1;stroke:none" />
      <path
         sodipodi:nodetypes="cccc"
         transform="matrix(0.82704743,0,0,0.82704743,-20.819166,80.887505)"
         inkscape:connector-curvature="0"
         id="path3949"
         d="m -622.75828,892.96675 c 3.31724,0.79533 5.03423,2.05957 8.80878,1.48295 l -3.03643,7.38032 c -3.17326,-3.25841 -5.34276,-5.60486 -5.77235,-8.86327 z"
         style="fill:#ffdd00;fill-opacity:1;stroke:none" />
      <path
         sodipodi:nodetypes="cccc"
         transform="matrix(0.82704743,0,0,0.82704743,-20.819166,80.887505)"
         inkscape:connector-curvature="0"
         id="path3951"
         d="m -599.6629,886.27642 c 3.1923,0.95336 3.78552,2.13417 7.99276,-1.73082 0.52637,4.246 -0.0605,6.17747 -3.189,9.96661 z"
         style="fill:#ffdd00;fill-opacity:1;stroke:none" />
      <path
         sodipodi:nodetypes="ccc"
         transform="matrix(0.82704743,0,0,0.82704743,-20.819166,80.887505)"
         inkscape:connector-curvature="0"
         id="path3953"
         d="m -446.63025,648.09476 c 0.81252,11.10066 0.23406,19.20398 8.81531,31.38956 -15.38285,0.36639 -13.511,-22.33961 -8.81531,-31.38956 z"
         style="fill:#ffdd00;fill-opacity:1;stroke:none" />
      <path
         sodipodi:nodetypes="ccccc"
         transform="matrix(0.82704743,0,0,0.82704743,-20.819166,80.887505)"
         inkscape:connector-curvature="0"
         id="path3955"
         d="m -455.75818,666.97585 c -15.53418,8.57257 -19.40523,22.91999 -5.04975,35.84639 -0.55997,-5.3218 -1.45882,-10.65526 3.66979,-15.22369 1.52879,4.75894 3.5414,8.88967 10.16845,7.95792 -5.62935,-11.13617 -6.90912,-19.83802 -8.78849,-28.58062 z"
         style="fill:#ffdd00;fill-opacity:1;stroke:none" />
      <path
         sodipodi:nodetypes="ccccc"
         transform="matrix(0.82704743,0,0,0.82704743,-20.819166,80.887505)"
         inkscape:connector-curvature="0"
         id="path3957"
         d="m -554.6455,599.651 4.92398,0.51313 c -0.18157,3.00847 -0.12397,6.22164 -1.00638,7.82843 l -4.27691,-0.48636 z"
         style="fill:#ffdd00;fill-opacity:1;stroke:none" />
      <path
         sodipodi:nodetypes="cccc"
         transform="matrix(0.82704743,0,0,0.82704743,-20.819166,80.887505)"
         inkscape:connector-curvature="0"
         id="path3959"
         d="m -520.42475,567.03421 c -9.61076,-2.72187 -7.38479,6.49304 -2.87077,7.00186 l 2.22403,-2.56924 c -0.50173,-1.27795 -0.2029,-3.28806 0.64674,-4.43262 z"
         style="fill:#ffdd00;fill-opacity:1;stroke:none" />
      <path
         sodipodi:nodetypes="ccccc"
         transform="matrix(0.82704743,0,0,0.82704743,-20.819166,80.887505)"
         inkscape:connector-curvature="0"
         id="path3961"
         d="m -512.99463,568.92992 c 0.0324,1.8282 -0.18803,4.39433 -3.95415,4.15271 -0.82472,0.94003 -2.60947,2.64013 -5.00425,5.93819 9.41531,1.80861 12.29223,-5.05619 12.68528,-8.90261 z"
         style="fill:#ffdd00;fill-opacity:1;stroke:none" />
      <path
         sodipodi:nodetypes="cccc"
         inkscape:connector-curvature="0"
         id="path3963"
         d="m -595.58476,688.62678 c 1.58446,-2.20834 3.16891,-2.82503 4.75337,-3.65643 -2.32696,-1.66146 -5.00095,-1.93479 -7.67851,-2.19385 z"
         style="fill:#ffdd00;fill-opacity:1;stroke:none" />
      <path
         sodipodi:nodetypes="cccc"
         inkscape:connector-curvature="0"
         id="path3965"
         d="m -606.81548,699.93918 c -0.63401,2.05536 -1.96042,3.31069 -1.23756,6.01892 -3.10905,-0.47921 -4.06726,-1.38199 -5.39315,-3.20763 2.31996,-2.03052 3.8555,-2.08035 6.63071,-2.81129 z"
         style="fill:#ffdd00;fill-opacity:1;stroke:none" />
      <path
         sodipodi:nodetypes="cccc"
         inkscape:connector-curvature="0"
         id="path3967"
         d="m -605.1292,726.80757 c 1.337,3.32434 2.69495,3.55482 3.67597,4.74331 -2.24548,0.84882 -3.61285,2.3224 -7.19184,1.51314 0.27811,-3.79472 1.50366,-4.19585 3.51587,-6.25645 z"
         style="fill:#ffdd00;fill-opacity:1;stroke:none" />
      <path
         sodipodi:nodetypes="cccc"
         inkscape:connector-curvature="0"
         id="path3969"
         d="m -584.34562,739.40573 c 1.4707,1.94603 1.94565,2.32427 5.52375,3.2166 -1.64917,1.71278 -2.85796,4.40165 -5.09196,4.56716 -1.01059,-2.80326 -2.1423,-4.9805 -0.43179,-7.78376 z"
         style="fill:#ffdd00;fill-opacity:1;stroke:none" />
      <path
         id="path3979"
         transform="matrix(0.82704743,0,0,0.82704743,-20.819166,80.887505)"
         d="m -467.25,549.25 c -11.56137,1.731 -19.00055,8.01617 -25.46875,15.40625 1.41209,-4.13992 2.32697,-7.42258 -0.21875,-11.5625 -10.6682,0.83347 -22.54387,0.1414 -31.16081,4.49087 -2.87659,1.71307 -2.24528,3.07731 -1.27669,4.79038 3.55106,-0.665 6.25488,-0.76021 8.82488,0.18955 1.07516,3.1693 5.31369,4.81663 9.27571,3.7048 5.54577,13.54767 -6.17883,21.22285 -16.37334,16.1365 -1.67853,1.14763 -3.6209,1.95231 -6.06004,4.33829 0.17393,-4.22129 1.3623,-6.45849 3.09272,-8.72907 -4.68982,-2.16353 -5.92959,-8.50379 -4.68977,-16.88119 -17.16922,0.74337 -26.29338,3.10543 -36.38266,12.52237 -1.01572,1.7001 -1.66987,5.09988 2.8125,3.84375 3.49752,-3.00778 6.97123,-5.11149 10.46875,-6.40625 1.52278,0.59948 4.5033,-1.41518 3.4375,3.84375 -13.88685,3.22997 -14.79864,12.2232 -6.09375,21.53125 4.42367,0.98922 10.39041,1.22723 12.59375,0.1875 2.01813,-0.95233 1.14772,-2.05463 1.125,-4.6875 34.17636,4.02861 17.75882,33.45295 5,27.5 -0.46658,-2.53081 -1.08915,-3.19287 2.71875,-3.71875 3.34968,1.11143 1.97971,-3.73175 2,-5.4375 -10.74101,5.27548 -17.5964,-0.0819 -24.75,-0.5625 -2.5244,6.07579 -2.57181,14.29274 2.15529,17.67482 3.07252,-1.18114 5.91942,-0.62247 11.25096,-0.54982 18.05086,-1.37598 29.84066,-7.31201 31.46875,-25.59375 1.01618,3.43649 2.0366,6.89058 1.9375,12 7.64126,-2.20028 15.19202,-13.33443 12.625,-33.625 7.97075,4.08041 15.27851,25.10755 -1.0625,32.125 -16.34101,7.01745 -20.03538,19.95826 -36.1875,20.125 -4.6271,9.12585 -14.08528,14.42029 -26.125,18.40625 4.65061,7.15057 15.90526,1.43243 19.46875,9.84375 -37.07387,-1.19631 -34.39867,13.60577 -48.59375,19.0625 12.91131,3.53 23.30747,-4.99861 33.40625,-14.96875 2.26781,7.06642 -0.96833,14.12108 -4.28125,21.1875 7.70108,-0.62136 14.39388,-7.68328 20.96875,-15.625 -4.1515,5.24144 -7.55442,12.66809 -8.375,22.125 -8.75547,2.58924 -16.30275,3.33485 -23.34375,1.625 l 1.15625,-10.375 c -37.23646,12.90532 -22.73783,39.46348 -43.93971,51.67266 3.86932,2.35254 8.32509,3.01823 15.64183,1.00881 -5.60716,13.70522 -8.2689,25.42581 -5.45212,39.13103 l 6.71875,-9.09375 c -0.79852,12.12385 2.85837,24.12615 2.40625,36.25 5.7702,-7.18899 4.90623,-19.14075 4.3125,-29.53125 8.60422,5.7599 9.90971,18.81992 9.09375,34 l 10.28125,-23.3125 c -12.62303,-5.18338 -18.08154,-16.4392 -17,-33.21875 l -7.125,0.40625 5.40424,-21.74397 c -3.50975,0.92628 -7.01949,1.9482 -10.52924,1.18147 8.644,-31.4647 25.25315,-29.07736 32.96875,-30.90625 -7.68023,7.51676 -18.69639,13.88828 -22.5,24.3125 5.77566,-2.0706 11.56809,-3.39129 17.34375,-8.25 -8.35473,9.36301 -10.3691,17.98528 -10.4375,26.3125 7.47816,-8.58069 12.92536,-7.84259 22.53125,-19.375 -7.15047,14.45799 -14.99054,24.99372 -25.28125,27.9375 0.89201,7.59196 3.64283,12.538 8.6875,14.375 1.47033,-17.86075 13.3073,-24.47625 23,-31.03125 -15.9585,18.66539 -21.83855,32.47091 -15.78125,43.65625 l 3.84375,-14.21875 c 1.38455,4.82284 6.283,8.89764 12.90625,11.625 0.7582,-12.91453 -4.82554,-23.17463 5.4375,-36.53125 2.96542,8.36704 5.32775,12.56595 9.34375,17.78125 4.22733,-15.69767 24.59909,-17.85082 25.6875,-40.71875 -3.5875,2.31392 -12.10396,6.60117 -18.96875,22.9375 -4.05564,-25.35679 5.30862,-34.19484 14.625,-43.09375 l -29.90625,20.125 c -2.39029,-21.32821 8.19853,-35.33395 25.25,-45.71875 -2.15415,8.10514 -10.08672,19.37567 -18.40625,30.84375 14.94183,-7.9705 26.43198,-19.37444 35.09375,-33.625 1.76929,6.2717 -2.93141,16.11642 -4.90625,25.0625 12.90104,-5.32802 19.94795,-12.75128 14.78125,-30.84375 -1.93564,-11.03079 5.02507,-15.57747 8.78125,-22.46875 -0.79466,7.51237 -3.88797,14.36849 -1.09375,22.90625 7.31388,-22.20552 21.51754,-28.80517 27.40625,-45.1875 12.2176,19.43193 21.47516,34.55286 33,33.84375 -13.00469,-19.72945 -8.23919,-31.28022 -15.65625,-36.90625 -12.18067,-9.23936 -16.03961,-14.78391 -16.6875,-25.625 9.35332,16.41183 21.3375,18.30467 28.25,15.84375 -17.39796,-13.0003 -16.2706,-25.15928 -24.8125,-29.96875 -6.7044,7.43832 -12.52283,11.28003 -18.65625,12.4375 6.57016,-1.25902 2.72965,-20.25719 0.4375,-21.65625 -2.99272,-1.82666 -14.56787,11.39137 -15.1875,10.0625 6.29479,-6.1385 4.38202,-12.26775 21.84375,-18.40625 0.55293,7.11431 1.47273,14.22944 -0.0937,21.34375 11.97214,-5.0616 4.4343,-23.85461 2,-27.5625 z m -11.5625,49.03125 c 13.83621,13.31966 12.68095,19.51951 -6.1875,34.5 6.17199,-11.03823 10.51827,-22.29479 6.1875,-34.5 z M -494.71875,617.75 c 0.34697,18.26907 -11.19048,40.65956 -38.03125,49.0625 0.61842,-17.38655 10.06843,-28.79354 20.46875,-34.75 -3.4197,5.01383 -9.09391,12.97098 -7.96875,20.125 11.106,-4.24748 18.66717,-21.90739 25.53125,-34.4375 z"
         style="fill:#ffdd00;fill-opacity:1;stroke:none"
         inkscape:connector-curvature="0"
         sodipodi:nodetypes="ccccccccccccccccsccccccccccsccccccccccccccccccccccccccccccccccccccccccccccccsccccsccccccccccccc" />
      <path
         sodipodi:nodetypes="ccc"
         transform="matrix(0.82704743,0,0,0.82704743,-20.819166,80.887505)"
         inkscape:connector-curvature="0"
         id="path3975"
         d="m -457.41544,636.67674 c -14.09676,9.70931 -13.34191,23.31312 -11.76754,31.50663 9.83216,-7.59608 17.07824,-18.78202 11.76754,-31.50663 z"
         style="fill:#ffdd00;fill-opacity:1;stroke:none" />
      <path
         sodipodi:nodetypes="ccccsc"
         transform="matrix(0.82704743,0,0,0.82704743,-20.819166,80.887505)"
         inkscape:connector-curvature="0"
         id="path3977"
         d="m -470.39496,640.31659 c -36.34247,44.76626 -12.20065,64.7677 -29.53545,75.31651 2.43845,-9.70549 0.29305,-15.9731 -1.13879,-22.77587 -4.03019,8.80294 -16.38006,9.68237 -0.7592,37.20059 22.51252,-18.19939 27.63091,-36.68253 26.55841,-56.77264 -0.64248,-12.03517 1.56983,-21.44479 4.87503,-32.96859 z"
         style="fill:#ffdd00;fill-opacity:1;stroke:none" />
    </g>
  </g>
</svg>
